<?xml version="1.0" encoding="iso-8859-1"?>
<!-- Generator: Adobe Illustrator 19.0.0, SVG Export Plug-In . SVG Version: 6.00 Build 0)  -->
<svg version="1.1" id="Layer_1" xmlns="http://www.w3.org/2000/svg" xmlns:xlink="http://www.w3.org/1999/xlink" x="0px" y="0px"
	 viewBox="0 0 512 512" style="enable-background:new 0 0 512 512;" xml:space="preserve">
<g>
	<path style="fill:#765225;" d="M136.261,320.691c-2.633,0-5.07-1.55-6.21-3.95l-1.218-2.561l39.207-7.846l0.239,0.004
		c7.124,0.122,12.375,2.009,15.608,5.611c1.433,1.594,2.524,3.571,3.241,5.873l0.895,2.87h-51.762V320.691z"/>
	<path style="fill:#765225;" d="M185.017,318.479h-48.756c-1.858,0-3.461-1.106-4.213-2.687l36.193-7.243
		c6.47,0.111,11.18,1.736,14,4.877C183.613,314.952,184.475,316.744,185.017,318.479z"/>
	<path style="fill:#765225;" d="M52.892,311.844c-28.655,0-38.375-3.251-38.516-12.884l-0.01-0.647l0.342-0.551
		c1.642-2.651,10.659-7.97,33.027-9.128c2.652-0.135,5.375-0.203,8.097-0.203c17.191,0,34.932,2.738,48.677,7.511l0.735,0.255
		l0.412,0.659c1.204,1.92,2.478,3.782,3.79,5.532l2.144,2.864l-3.521,0.638C93.07,308.608,71.323,311.844,52.892,311.844z"/>
	<path style="fill:#765225;" d="M103.783,298.032c1.262,2.013,2.577,3.926,3.894,5.684c-13.989,2.532-36.139,5.916-54.783,5.916
		c-30.101,0-36.205-3.915-36.305-10.704c0.918-1.482,8.603-6.911,31.262-8.084C67.179,289.861,87.958,292.536,103.783,298.032z"/>
	<path style="fill:#765225;" d="M313.194,320.691c-2.633,0-5.07-1.55-6.21-3.95l-1.218-2.561l39.207-7.846l0.239,0.004
		c7.124,0.122,12.374,2.009,15.608,5.611c1.433,1.594,2.524,3.571,3.241,5.873l0.895,2.87h-51.762V320.691z"/>
	<path style="fill:#765225;" d="M361.951,318.479h-48.756c-1.858,0-3.461-1.106-4.213-2.687l36.193-7.243
		c6.47,0.111,11.18,1.736,14,4.877C360.546,314.952,361.409,316.744,361.951,318.479z"/>
	<path style="fill:#765225;" d="M486.014,276.457c-9.277,0-53.838-6.43-62.678-7.72l-1.958-0.285l0.067-1.978
		c0.531-15.472,2.752-24.02,4.523-28.465l0.753-1.89l1.945,0.592c6.084,1.849,15.7,5.978,26.962,15.153
		c9.108,7.426,26.808,13.325,36.548,16.179l3.08,0.903l-1.941,2.557C490.82,274.791,488.363,276.457,486.014,276.457z"/>
	<path style="fill:#765225;" d="M491.554,270.166c-1.779,2.344-3.771,4.081-5.54,4.081c-7.907,0-42.873-4.855-62.358-7.697
		c0.53-15.46,2.765-23.698,4.367-27.723c5.385,1.637,14.941,5.573,26.208,14.752C463.4,261.053,480.463,266.915,491.554,270.166z"/>
</g>
<g>
	<path style="fill:#AA8557;" d="M290.489,311.711c-42.069-1.101-75.354-9.116-95.24-13.906c-9.107-2.201-15.121-3.654-18.869-3.654
		c-0.617,0-1.224,0.092-1.805,0.274l-0.443,0.139l-2.423-0.27l-0.47-1.29c-2.59-7.125-5.816-17.861-6.477-28.542
		c-0.201-3.197-2.882-5.702-6.104-5.702c-0.121,0-0.242,0.003-0.363,0.01c-3.332,0.21-5.886,3.11-5.685,6.461
		c0.668,10.645,3.552,21.145,5.853,28.078l0.787,2.374l-33.924,6.786l-0.843-0.938c-3.116-3.467-10.625-12.422-13.04-20.697
		c-1.846-6.543,0.418-39.011,18.795-63.263c13.205-17.429,31.706-26.266,54.986-26.266c46.146,0,90.268,13.983,122.485,24.192
		l0.253,0.08c19.588,6.209,35.06,11.114,45.349,11.114c8.033,0,15.354-1.527,22.435-3.005c6.566-1.37,12.186-2.543,17.783-2.543
		c7.906,0,14.656,2.52,21.243,7.931l1.316,1.081l-0.71,1.548c-2.763,6.032-6.088,17.973-6.224,40.605l-0.006,0.858l-0.582,0.63
		c-5.186,5.608-29.299,15.703-49.615,22.223l-0.675,0.217l-0.675-0.216c-2.32-0.742-4.877-1.274-7.6-1.578l-1.365-0.153
		l-0.468-1.292c-2.119-5.841-5.778-17.316-6.476-28.539c-0.201-3.197-2.882-5.703-6.103-5.703c-0.121,0-0.242,0.003-0.365,0.01
		c-3.331,0.21-5.885,3.11-5.684,6.461c0.669,10.645,3.552,21.145,5.853,28.078l0.788,2.374l-33.155,6.631l-15.43-23.151
		c-1.131-1.697-3.024-2.712-5.065-2.712c-1.199,0-2.364,0.354-3.369,1.024c-2.79,1.86-3.546,5.643-1.686,8.434l17.273,25.909
		L290.489,311.711z M384.642,239.135c-4.421,0-8.017,3.596-8.017,8.017s3.596,8.017,8.017,8.017s8.017-3.596,8.017-8.017
		C392.659,242.733,389.063,239.135,384.642,239.135z"/>
	<path style="fill:#AA8557;" d="M413.372,230.787c-3.217,7.022-6.292,19.485-6.425,41.513c-4.335,4.689-26.131,14.387-48.668,21.619
		c-2.488-0.796-5.164-1.349-8.028-1.67c-2.19-6.038-5.674-17.096-6.347-27.922c-0.288-4.567-4.224-8.028-8.802-7.763
		c-4.567,0.288-8.04,4.224-7.764,8.802c0.675,10.749,3.539,21.343,5.962,28.641l-29.249,5.85l-14.608-21.918
		c-2.543-3.815-7.686-4.844-11.501-2.3c-3.815,2.543-4.844,7.686-2.3,11.501l14.907,22.36c-41.834-1.095-74.622-8.99-94.781-13.845
		c-9.611-2.322-15.405-3.716-19.385-3.716c-0.863,0-1.692,0.133-2.466,0.376c-0.199-0.022-0.397-0.044-0.596-0.066
		c-2.19-6.027-5.674-17.041-6.347-27.922c-0.288-4.567-4.235-8.028-8.802-7.763c-4.567,0.288-8.041,4.224-7.764,8.802
		c0.675,10.749,3.539,21.343,5.962,28.641l-30.235,6.049c-4.234-4.711-10.482-12.717-12.561-19.839
		c-1.559-5.529,0.485-37.62,18.434-61.307c12.761-16.842,30.676-25.39,53.224-25.39c45.848,0,89.805,13.945,121.907,24.118
		c19.85,6.292,35.519,11.268,46.18,11.268c8.283,0,15.736-1.559,22.946-3.063C390.404,222.892,401.053,220.668,413.372,230.787z
		 M394.871,247.153c0-5.64-4.589-10.229-10.229-10.229c-5.64,0-10.229,4.589-10.229,10.229c0,5.64,4.589,10.229,10.229,10.229
		C390.282,257.382,394.871,252.794,394.871,247.153z"/>
</g>
<g>
	<path style="fill:#3D484A;" d="M510.973,260.855c1.128,2.046,1.338,4.479,0.575,6.69c-0.818,2.378-8.493,23.289-25.534,23.289
		c-10.074,0-50.426-5.772-66.206-8.084c-4.689,5.408-14.077,10.738-29.603,17.14c-5.618,2.311-11.191,4.39-15.924,6.082
		c6.237,9.654,5.12,20.491,4.954,21.829c-0.521,4.147-4.047,7.265-8.227,7.265h-57.813c-7.099,0-13.381-3.506-17.24-8.869
		c-40.208-0.464-73.549-7.254-94.969-12.253c2.057,6.9,1.438,12.883,1.316,13.856c-0.521,4.147-4.047,7.265-8.227,7.265h-57.813
		c-9.885,0-18.191-6.801-20.557-15.957c-13.79,2.654-40.23,7.111-62.811,7.111c-13.834,0-24.848-0.564-33.628-3.329
		C3.34,317.882,0,307.001,0,298.762c0-3.992,1.482-9.787,8.515-14.73c15.747-11.036,56.044-12.916,88.267-5.264
		c-0.785-14.542,3.562-45.295,21.73-69.513c15.858-21.144,38.925-32.324,66.715-32.324c48.413,0,93.786,14.387,126.917,24.892
		c17.75,5.629,33.076,10.494,41.17,10.494c6.569,0,12.883-1.316,19.551-2.709c16.543-3.45,35.21-7.354,55.26,12.142
		c6.114,1.316,20.159,5.584,36.592,18.976c8.967,7.31,32.578,14.066,40.916,16.046C507.909,257.315,509.845,258.797,510.973,260.855
		z M486.014,274.246c1.769,0,3.76-1.736,5.54-4.081c-11.09-3.251-28.155-9.112-37.322-16.588
		c-11.267-9.178-20.823-13.115-26.208-14.752c-1.602,4.025-3.837,12.264-4.367,27.723
		C443.141,269.391,478.107,274.246,486.014,274.246z M406.947,272.3c0.133-22.028,3.207-34.491,6.425-41.513
		c-12.319-10.118-22.968-7.896-37.112-4.943c-7.21,1.504-14.663,3.063-22.946,3.063c-10.66,0-26.33-4.976-46.18-11.268
		c-32.102-10.174-76.059-24.118-121.907-24.118c-22.548,0-40.462,8.548-53.224,25.39c-17.948,23.687-19.993,55.778-18.434,61.307
		c2.079,7.122,8.327,15.128,12.561,19.839l30.235-6.049c-2.422-7.298-5.286-17.892-5.962-28.641
		c-0.276-4.578,3.197-8.515,7.764-8.802c4.567-0.265,8.515,3.196,8.802,7.763c0.673,10.881,4.158,21.896,6.347,27.922
		c0.199,0.022,0.397,0.044,0.596,0.066c0.774-0.243,1.603-0.376,2.466-0.376c3.981,0,9.776,1.393,19.385,3.716
		c20.158,4.855,52.947,12.75,94.781,13.845l-14.907-22.36c-2.543-3.815-1.515-8.957,2.3-11.501c3.815-2.543,8.958-1.515,11.501,2.3
		l14.608,21.918l29.249-5.85c-2.422-7.299-5.286-17.892-5.962-28.641c-0.276-4.578,3.197-8.515,7.764-8.802
		c4.578-0.265,8.515,3.196,8.802,7.763c0.673,10.826,4.158,21.884,6.347,27.922c2.864,0.321,5.54,0.874,8.028,1.67
		C380.816,286.686,402.612,276.988,406.947,272.3z M313.194,318.479h48.756c-0.541-1.736-1.404-3.528-2.776-5.054
		c-2.82-3.141-7.531-4.766-14-4.877l-36.193,7.243C309.733,317.373,311.336,318.479,313.194,318.479z M136.261,318.479h48.756
		c-0.541-1.736-1.404-3.528-2.776-5.054c-2.82-3.141-7.531-4.766-14-4.877l-36.193,7.243
		C132.8,317.373,134.403,318.479,136.261,318.479z M107.675,303.716c-1.316-1.758-2.632-3.671-3.894-5.684
		c-15.824-5.496-36.603-8.172-55.933-7.188c-22.657,1.172-30.343,6.602-31.262,8.084c0.1,6.79,6.204,10.704,36.305,10.704
		C71.536,309.632,93.686,306.248,107.675,303.716z"/>
	<path style="fill:#3D484A;" d="M384.642,236.924c5.64,0,10.229,4.589,10.229,10.229c0,5.64-4.589,10.229-10.229,10.229
		c-5.64,0-10.229-4.589-10.229-10.229C374.413,241.513,379.002,236.924,384.642,236.924z"/>
</g>
<g>
</g>
<g>
</g>
<g>
</g>
<g>
</g>
<g>
</g>
<g>
</g>
<g>
</g>
<g>
</g>
<g>
</g>
<g>
</g>
<g>
</g>
<g>
</g>
<g>
</g>
<g>
</g>
<g>
</g>
</svg>
